<?xml version="1.0" encoding="UTF-8" standalone="no"?>
<!-- Created with Inkscape (http://www.inkscape.org/) -->

<svg
   xmlns:dc="http://purl.org/dc/elements/1.1/"
   xmlns:cc="http://creativecommons.org/ns#"
   xmlns:rdf="http://www.w3.org/1999/02/22-rdf-syntax-ns#"
   xmlns:svg="http://www.w3.org/2000/svg"
   xmlns="http://www.w3.org/2000/svg"
   xmlns:sodipodi="http://sodipodi.sourceforge.net/DTD/sodipodi-0.dtd"
   xmlns:inkscape="http://www.inkscape.org/namespaces/inkscape"
   width="1900"
   height="400"
   viewBox="0 0 502.70865 105.83367"
   version="1.1"
   id="svg927"
   inkscape:version="0.92.4 (33fec40, 2019-01-16)"
   sodipodi:docname="logo.svg">
  <defs
     id="defs921" />
  <sodipodi:namedview
     id="base"
     pagecolor="#ffffff"
     bordercolor="#666666"
     borderopacity="1.0"
     inkscape:pageopacity="0.0"
     inkscape:pageshadow="2"
     inkscape:zoom="0.35"
     inkscape:cx="443.22085"
     inkscape:cy="-29.429525"
     inkscape:document-units="px"
     inkscape:current-layer="layer1"
     showgrid="false"
     inkscape:window-width="958"
     inkscape:window-height="1039"
     inkscape:window-x="2880"
     inkscape:window-y="1100"
     inkscape:window-maximized="0"
     units="px" />
  <metadata
     id="metadata924">
    <rdf:RDF>
      <cc:Work
         rdf:about="">
        <dc:format>image/svg+xml</dc:format>
        <dc:type
           rdf:resource="http://purl.org/dc/dcmitype/StillImage" />
        <dc:title></dc:title>
      </cc:Work>
    </rdf:RDF>
  </metadata>
  <g
     inkscape:label="Layer 1"
     inkscape:groupmode="layer"
     id="layer1"
     transform="translate(0,-191.16632)">
    <g
       id="g957"
       transform="matrix(3.5364448,0,0,3.8000426,-99.242762,-207.1914)">
      <path
         id="path670"
         d="m 39.270782,125.09869 c -1.217084,-0.42333 -2.407709,-1.53458 -2.778125,-2.54 -0.264584,-0.74083 -0.238125,-0.76729 0.582083,-0.76729 0.661458,0 0.9525,0.18521 1.296458,0.79375 0.661459,1.13771 2.06375,1.66687 4.101042,1.53458 1.852083,-0.10583 2.989792,-0.87312 2.989792,-1.98437 0,-1.45521 -0.608542,-1.85209 -4.788959,-3.12209 -2.460625,-0.76729 -3.518958,-1.53458 -3.915833,-2.93687 -0.661458,-2.35479 1.561042,-4.31271 4.894792,-4.33917 2.143125,0 4.180416,1.00542 4.92125,2.43417 0.899583,1.71979 -0.291042,2.19604 -1.481667,0.60854 -0.9525,-1.21708 -1.957917,-1.71979 -3.545417,-1.71979 -3.201458,0 -4.418541,2.91041 -1.666875,4.04812 0.529167,0.23813 1.984375,0.71438 3.254375,1.11125 2.592917,0.76729 3.757084,1.66688 4.021667,3.12209 0.291042,1.61395 -0.714375,3.12208 -2.566458,3.81 -1.164167,0.42333 -4.074584,0.39687 -5.318125,-0.0529 z"
         inkscape:connector-curvature="0"
         style="stroke-width:0.02645833;fill:#1da5cd;fill-opacity:1" />
      <path
         id="path672"
         d="m 125.23391,125.17806 c -1.29646,-0.44979 -2.46063,-1.48166 -3.22792,-2.80458 -0.66146,-1.13771 -0.74083,-1.48167 -0.74083,-3.75708 0,-2.06375 0.10583,-2.69875 0.58208,-3.59834 1.24354,-2.35479 3.38667,-3.46604 6.21771,-3.20145 2.06375,0.1852 3.54541,1.19062 4.52437,3.12208 0.66146,1.27 0.76729,1.77271 0.76729,3.67771 0,1.905 -0.10583,2.40771 -0.76729,3.67771 -1.00541,1.98437 -2.64583,3.01625 -4.94771,3.12208 -0.87312,0.0265 -1.95791,-0.0529 -2.4077,-0.23813 z m 4.10104,-1.56104 c 1.69333,-1.03187 2.32833,-2.40771 2.35479,-5.02708 0.0529,-3.33375 -1.74625,-5.52979 -4.49792,-5.52979 -1.53458,0 -2.77812,0.79375 -3.62479,2.32833 -0.84667,1.53458 -0.87312,4.7625 -0.0794,6.35 0.50271,1.00542 1.48167,1.87854 2.40771,2.24896 0.92604,0.34396 2.54,0.15875 3.43958,-0.37042 z"
         inkscape:connector-curvature="0"
         style="stroke-width:0.02645833;fill:#1da5cd;fill-opacity:1" />
      <path
         id="path674"
         d="m 53.399532,118.6164 v -6.61459 h 0.873125 c 1.137708,0 1.296458,0.18521 5.106458,5.92667 l 3.148542,4.73604 0.07938,-5.34458 0.05292,-5.31813 h 0.926041 0.926042 v 6.64105 6.61458 l -1.11125,-0.0794 -1.11125,-0.0794 -3.65125,-5.3975 -3.65125,-5.3975 v 5.45042 5.47687 h -0.79375 -0.79375 z"
         inkscape:connector-curvature="0"
         style="stroke-width:0.02645833;fill:#1da5cd;fill-opacity:1" />
      <path
         id="path676"
         d="m 73.375573,123.08786 c -1.5875,-1.16417 -2.936875,-2.27542 -2.989791,-2.46063 -0.05292,-0.18521 0.9525,-1.77271 2.2225,-3.4925 1.27,-1.71979 2.619375,-3.59833 2.989791,-4.1275 0.370417,-0.55562 0.820209,-0.97896 0.978959,-1.00542 0.132291,0 1.666875,1.93146 3.386666,4.2598 2.592917,3.57187 3.069167,4.3127 2.751667,4.60375 -0.714375,0.71437 -5.900208,4.36562 -6.164792,4.33916 -0.132291,0 -1.561041,-0.9525 -3.175,-2.11666 z m 3.307292,-4.23334 c 0,-3.09562 -0.105833,-5.26521 -0.238125,-5.21229 -0.238125,0.0794 -2.06375,2.48708 -4.259792,5.58271 -0.873125,1.21708 -0.873125,1.27 -0.370416,1.61396 0.264583,0.21166 1.402291,1.03187 2.487083,1.82562 1.084792,0.82021 2.06375,1.48167 2.196042,1.48167 0.105833,0.0265 0.185208,-2.35479 0.185208,-5.29167 z"
         inkscape:connector-curvature="0"
         style="stroke-width:0.02645833;fill:#1da5cd;fill-opacity:1" />
      <path
         id="path678"
         d="m 88.853698,118.6164 v -6.61459 h 3.545417 c 1.957917,0 3.889375,0.1323 4.312708,0.29105 2.725209,1.03187 3.571877,5.13291 1.455209,7.24958 -1.005417,1.00542 -1.5875,1.19062 -4.841875,1.37583 l -2.883959,0.15875 v 2.09021 2.06375 h -0.79375 -0.79375 z m 7.963959,0.0265 c 0.635,-0.635 0.767291,-1.00542 0.767291,-2.01084 0,-1.5875 -0.555625,-2.64583 -1.613958,-3.01625 -0.47625,-0.15875 -1.905,-0.29104 -3.175,-0.29104 h -2.354792 v 3.04271 3.04271 h 2.804584 c 2.725208,0 2.804583,-0.0265 3.571875,-0.76729 z"
         inkscape:connector-curvature="0"
         style="stroke-width:0.02645833;fill:#1da5cd;fill-opacity:1" />
      <path
         id="path680"
         d="m 109.30599,124.91348 c -0.29104,-0.37042 -5.10646,-12.3825 -5.10646,-12.72646 0,-0.13229 0.37042,-0.18521 0.84667,-0.13229 0.84666,0.0794 0.87312,0.13229 2.93687,5.31813 1.16417,2.8575 2.16959,5.21229 2.27542,5.21229 0.10583,0 1.13771,-2.35479 2.30187,-5.21229 2.09021,-5.2123 2.09021,-5.23875 2.96334,-5.31813 0.44979,-0.0529 0.84666,0 0.84666,0.13229 0,0.29104 -4.41854,11.35063 -4.92125,12.30313 -0.29104,0.55562 -0.58208,0.74083 -1.1377,0.74083 -0.42334,0 -0.87313,-0.15875 -1.00542,-0.3175 z"
         inkscape:connector-curvature="0"
         style="stroke-width:0.02645833;fill:#1da5cd;fill-opacity:1" />
      <path
         id="path682"
         d="m 139.65369,118.6164 v -6.61459 h 0.92605 0.92604 v 5.95313 5.92667 l 3.78354,0.0794 c 3.67771,0.0794 3.75708,0.10583 3.83646,0.68791 l 0.0794,0.58209 h -4.7625 -4.78896 z"
         inkscape:connector-curvature="0"
         style="stroke-width:0.02645833;fill:#1da5cd;fill-opacity:1" />
      <path
         id="path684"
         d="m 156.58703,119.27786 v -5.95313 h -2.38125 c -2.35479,0 -2.38125,0 -2.38125,-0.66146 v -0.66146 h 5.715 5.68854 l -0.0794,0.60855 c -0.0794,0.55562 -0.21166,0.58208 -2.51354,0.66145 l -2.46062,0.0794 v 5.92667 5.95313 h -0.79375 -0.79375 z"
         inkscape:connector-curvature="0"
         style="stroke-width:0.02645833;fill:#1da5cd;fill-opacity:1" />
    </g>
  </g>
</svg>
